<?xml version="1.0" encoding="UTF-8" standalone="no"?>
<!-- Created with Inkscape (http://www.inkscape.org/) -->

<svg
   version="1.1"
   id="svg2"
   width="4490.4131"
   height="3178.9199"
   viewBox="0 0 4490.4131 3178.9199"
   sodipodi:docname="Doppelhohlkammerplakat_1189x841mm.eps"
   xmlns:inkscape="http://www.inkscape.org/namespaces/inkscape"
   xmlns:sodipodi="http://sodipodi.sourceforge.net/DTD/sodipodi-0.dtd"
   xmlns="http://www.w3.org/2000/svg"
   xmlns:svg="http://www.w3.org/2000/svg">
  <defs
     id="defs6" />
  <sodipodi:namedview
     id="namedview4"
     pagecolor="#ffffff"
     bordercolor="#000000"
     borderopacity="0.25"
     inkscape:showpageshadow="2"
     inkscape:pageopacity="0.0"
     inkscape:pagecheckerboard="0"
     inkscape:deskcolor="#d1d1d1" />
  <g
     id="g8"
     inkscape:groupmode="layer"
     inkscape:label="ink_ext_XXXXXX"
     transform="matrix(1.3333333,0,0,-1.3333333,0,3178.92)">
    <g
       id="g10"
       transform="scale(0.1)">
      <path
         d="M 1.25,23840.6 H 33676.8 V 1.29688 H 1.25 Z"
         style="fill:none;stroke:#00adef;stroke-width:2.5;stroke-linecap:butt;stroke-linejoin:miter;stroke-miterlimit:10;stroke-dasharray:none;stroke-opacity:1"
         id="path12" />
      <path
         d="m 7321.35,219.898 c 78.27,0 141.73,63.5 141.73,141.801 0,78.199 -63.46,141.699 -141.73,141.699 -78.27,0 -141.74,-63.5 -141.74,-141.699 0,-78.301 63.47,-141.801 141.74,-141.801"
         style="fill:none;stroke:#00adef;stroke-width:2.5;stroke-linecap:butt;stroke-linejoin:miter;stroke-miterlimit:10;stroke-dasharray:none;stroke-opacity:1"
         id="path14" />
      <path
         d="m 7321.35,219.898 c 78.27,0 141.73,63.5 141.73,141.801 0,78.199 -63.46,141.699 -141.73,141.699 -78.27,0 -141.74,-63.5 -141.74,-141.699 0,-78.301 63.47,-141.801 141.74,-141.801 z"
         style="fill:none;stroke:#00adef;stroke-width:2.5;stroke-linecap:butt;stroke-linejoin:miter;stroke-miterlimit:4;stroke-dasharray:none;stroke-opacity:1"
         id="path16" />
      <path
         d="m 9368.65,219.898 c 78.27,0 141.73,63.5 141.73,141.801 0,78.199 -63.46,141.699 -141.73,141.699 -78.27,0 -141.74,-63.5 -141.74,-141.699 0,-78.301 63.47,-141.801 141.74,-141.801"
         style="fill:none;stroke:#00adef;stroke-width:2.5;stroke-linecap:butt;stroke-linejoin:miter;stroke-miterlimit:10;stroke-dasharray:none;stroke-opacity:1"
         id="path18" />
      <path
         d="m 9368.65,219.898 c 78.27,0 141.73,63.5 141.73,141.801 0,78.199 -63.46,141.699 -141.73,141.699 -78.27,0 -141.74,-63.5 -141.74,-141.699 0,-78.301 63.47,-141.801 141.74,-141.801 z"
         style="fill:none;stroke:#00adef;stroke-width:2.5;stroke-linecap:butt;stroke-linejoin:miter;stroke-miterlimit:4;stroke-dasharray:none;stroke-opacity:1"
         id="path20" />
      <path
         d="m 497.148,219.898 c 78.262,0 141.735,63.5 141.735,141.801 0,78.199 -63.473,141.699 -141.735,141.699 -78.261,0 -141.734,-63.5 -141.734,-141.699 0,-78.301 63.473,-141.801 141.734,-141.801"
         style="fill:none;stroke:#00adef;stroke-width:2.5;stroke-linecap:butt;stroke-linejoin:miter;stroke-miterlimit:10;stroke-dasharray:none;stroke-opacity:1"
         id="path22" />
      <path
         d="m 497.148,219.898 c 78.262,0 141.735,63.5 141.735,141.801 0,78.199 -63.473,141.699 -141.735,141.699 -78.261,0 -141.734,-63.5 -141.734,-141.699 0,-78.301 63.473,-141.801 141.734,-141.801 z"
         style="fill:none;stroke:#00adef;stroke-width:2.5;stroke-linecap:butt;stroke-linejoin:miter;stroke-miterlimit:4;stroke-dasharray:none;stroke-opacity:1"
         id="path24" />
      <path
         d="m 497.148,11737.1 c 78.262,0 141.735,63.5 141.735,141.7 0,78.3 -63.473,141.8 -141.735,141.8 -78.261,0 -141.734,-63.5 -141.734,-141.8 0,-78.2 63.473,-141.7 141.734,-141.7"
         style="fill:none;stroke:#00adef;stroke-width:2.5;stroke-linecap:butt;stroke-linejoin:miter;stroke-miterlimit:10;stroke-dasharray:none;stroke-opacity:1"
         id="path26" />
      <path
         d="m 497.148,11737.1 c 78.262,0 141.735,63.5 141.735,141.7 0,78.3 -63.473,141.8 -141.735,141.8 -78.261,0 -141.734,-63.5 -141.734,-141.8 0,-78.2 63.473,-141.7 141.734,-141.7 z"
         style="fill:none;stroke:#00adef;stroke-width:2.5;stroke-linecap:butt;stroke-linejoin:miter;stroke-miterlimit:4;stroke-dasharray:none;stroke-opacity:1"
         id="path28" />
      <path
         d="m 7321.35,23251.7 c 78.27,0 141.73,63.5 141.73,141.8 0,78.2 -63.46,141.7 -141.73,141.7 -78.27,0 -141.74,-63.5 -141.74,-141.7 0,-78.3 63.47,-141.8 141.74,-141.8"
         style="fill:none;stroke:#00adef;stroke-width:2.5;stroke-linecap:butt;stroke-linejoin:miter;stroke-miterlimit:10;stroke-dasharray:none;stroke-opacity:1"
         id="path30" />
      <path
         d="m 7321.35,23251.7 c 78.27,0 141.73,63.5 141.73,141.8 0,78.2 -63.46,141.7 -141.73,141.7 -78.27,0 -141.74,-63.5 -141.74,-141.7 0,-78.3 63.47,-141.8 141.74,-141.8 z"
         style="fill:none;stroke:#00adef;stroke-width:2.5;stroke-linecap:butt;stroke-linejoin:miter;stroke-miterlimit:4;stroke-dasharray:none;stroke-opacity:1"
         id="path32" />
      <path
         d="m 9368.65,23251.7 c 78.27,0 141.73,63.5 141.73,141.8 0,78.2 -63.46,141.7 -141.73,141.7 -78.27,0 -141.74,-63.5 -141.74,-141.7 0,-78.3 63.47,-141.8 141.74,-141.8"
         style="fill:none;stroke:#00adef;stroke-width:2.5;stroke-linecap:butt;stroke-linejoin:miter;stroke-miterlimit:10;stroke-dasharray:none;stroke-opacity:1"
         id="path34" />
      <path
         d="m 9368.65,23251.7 c 78.27,0 141.73,63.5 141.73,141.8 0,78.2 -63.46,141.7 -141.73,141.7 -78.27,0 -141.74,-63.5 -141.74,-141.7 0,-78.3 63.47,-141.8 141.74,-141.8 z"
         style="fill:none;stroke:#00adef;stroke-width:2.5;stroke-linecap:butt;stroke-linejoin:miter;stroke-miterlimit:4;stroke-dasharray:none;stroke-opacity:1"
         id="path36" />
      <path
         d="m 497.148,23251.7 c 78.262,0 141.735,63.5 141.735,141.8 0,78.2 -63.473,141.7 -141.735,141.7 -78.261,0 -141.734,-63.5 -141.734,-141.7 0,-78.3 63.473,-141.8 141.734,-141.8"
         style="fill:none;stroke:#00adef;stroke-width:2.5;stroke-linecap:butt;stroke-linejoin:miter;stroke-miterlimit:10;stroke-dasharray:none;stroke-opacity:1"
         id="path38" />
      <path
         d="m 497.148,23251.7 c 78.262,0 141.735,63.5 141.735,141.8 0,78.2 -63.473,141.7 -141.735,141.7 -78.261,0 -141.734,-63.5 -141.734,-141.7 0,-78.3 63.473,-141.8 141.734,-141.8 z"
         style="fill:none;stroke:#00adef;stroke-width:2.5;stroke-linecap:butt;stroke-linejoin:miter;stroke-miterlimit:4;stroke-dasharray:none;stroke-opacity:1"
         id="path40" />
      <path
         d="m 24227.2,219.898 c 78.3,0 141.8,63.5 141.8,141.801 0,78.199 -63.5,141.699 -141.8,141.699 -78.2,0 -141.7,-63.5 -141.7,-141.699 0,-78.301 63.5,-141.801 141.7,-141.801"
         style="fill:none;stroke:#00adef;stroke-width:2.5;stroke-linecap:butt;stroke-linejoin:miter;stroke-miterlimit:10;stroke-dasharray:none;stroke-opacity:1"
         id="path42" />
      <path
         d="m 24227.2,219.898 c 78.3,0 141.8,63.5 141.8,141.801 0,78.199 -63.5,141.699 -141.8,141.699 -78.2,0 -141.7,-63.5 -141.7,-141.699 0,-78.301 63.5,-141.801 141.7,-141.801 z"
         style="fill:none;stroke:#00adef;stroke-width:2.5;stroke-linecap:butt;stroke-linejoin:miter;stroke-miterlimit:4;stroke-dasharray:none;stroke-opacity:1"
         id="path44" />
      <path
         d="m 26274.5,219.898 c 78.2,0 141.7,63.5 141.7,141.801 0,78.199 -63.5,141.699 -141.7,141.699 -78.2,0 -141.8,-63.5 -141.8,-141.699 0,-78.301 63.6,-141.801 141.8,-141.801"
         style="fill:none;stroke:#00adef;stroke-width:2.5;stroke-linecap:butt;stroke-linejoin:miter;stroke-miterlimit:10;stroke-dasharray:none;stroke-opacity:1"
         id="path46" />
      <path
         d="m 26274.5,219.898 c 78.2,0 141.7,63.5 141.7,141.801 0,78.199 -63.5,141.699 -141.7,141.699 -78.2,0 -141.8,-63.5 -141.8,-141.699 0,-78.301 63.6,-141.801 141.8,-141.801 z"
         style="fill:none;stroke:#00adef;stroke-width:2.5;stroke-linecap:butt;stroke-linejoin:miter;stroke-miterlimit:4;stroke-dasharray:none;stroke-opacity:1"
         id="path48" />
      <path
         d="m 33096.4,219.898 c 78.3,0 141.7,63.5 141.7,141.801 0,78.199 -63.4,141.699 -141.7,141.699 -78.2,0 -141.7,-63.5 -141.7,-141.699 0,-78.301 63.5,-141.801 141.7,-141.801"
         style="fill:none;stroke:#00adef;stroke-width:2.5;stroke-linecap:butt;stroke-linejoin:miter;stroke-miterlimit:10;stroke-dasharray:none;stroke-opacity:1"
         id="path50" />
      <path
         d="m 33096.4,219.898 c 78.3,0 141.7,63.5 141.7,141.801 0,78.199 -63.4,141.699 -141.7,141.699 -78.2,0 -141.7,-63.5 -141.7,-141.699 0,-78.301 63.5,-141.801 141.7,-141.801 z"
         style="fill:none;stroke:#00adef;stroke-width:2.5;stroke-linecap:butt;stroke-linejoin:miter;stroke-miterlimit:4;stroke-dasharray:none;stroke-opacity:1"
         id="path52" />
      <path
         d="m 33096.4,11737.1 c 78.3,0 141.7,63.5 141.7,141.7 0,78.3 -63.4,141.8 -141.7,141.8 -78.2,0 -141.7,-63.5 -141.7,-141.8 0,-78.2 63.5,-141.7 141.7,-141.7"
         style="fill:none;stroke:#00adef;stroke-width:2.5;stroke-linecap:butt;stroke-linejoin:miter;stroke-miterlimit:10;stroke-dasharray:none;stroke-opacity:1"
         id="path54" />
      <path
         d="m 33096.4,11737.1 c 78.3,0 141.7,63.5 141.7,141.7 0,78.3 -63.4,141.8 -141.7,141.8 -78.2,0 -141.7,-63.5 -141.7,-141.8 0,-78.2 63.5,-141.7 141.7,-141.7 z"
         style="fill:none;stroke:#00adef;stroke-width:2.5;stroke-linecap:butt;stroke-linejoin:miter;stroke-miterlimit:4;stroke-dasharray:none;stroke-opacity:1"
         id="path56" />
      <path
         d="m 24227.2,23251.7 c 78.3,0 141.8,63.5 141.8,141.8 0,78.2 -63.5,141.7 -141.8,141.7 -78.2,0 -141.7,-63.5 -141.7,-141.7 0,-78.3 63.5,-141.8 141.7,-141.8"
         style="fill:none;stroke:#00adef;stroke-width:2.5;stroke-linecap:butt;stroke-linejoin:miter;stroke-miterlimit:10;stroke-dasharray:none;stroke-opacity:1"
         id="path58" />
      <path
         d="m 24227.2,23251.7 c 78.3,0 141.8,63.5 141.8,141.8 0,78.2 -63.5,141.7 -141.8,141.7 -78.2,0 -141.7,-63.5 -141.7,-141.7 0,-78.3 63.5,-141.8 141.7,-141.8 z"
         style="fill:none;stroke:#00adef;stroke-width:2.5;stroke-linecap:butt;stroke-linejoin:miter;stroke-miterlimit:4;stroke-dasharray:none;stroke-opacity:1"
         id="path60" />
      <path
         d="m 26274.5,23251.7 c 78.2,0 141.7,63.5 141.7,141.8 0,78.2 -63.5,141.7 -141.7,141.7 -78.2,0 -141.8,-63.5 -141.8,-141.7 0,-78.3 63.6,-141.8 141.8,-141.8"
         style="fill:none;stroke:#00adef;stroke-width:2.5;stroke-linecap:butt;stroke-linejoin:miter;stroke-miterlimit:10;stroke-dasharray:none;stroke-opacity:1"
         id="path62" />
      <path
         d="m 26274.5,23251.7 c 78.2,0 141.7,63.5 141.7,141.8 0,78.2 -63.5,141.7 -141.7,141.7 -78.2,0 -141.8,-63.5 -141.8,-141.7 0,-78.3 63.6,-141.8 141.8,-141.8 z"
         style="fill:none;stroke:#00adef;stroke-width:2.5;stroke-linecap:butt;stroke-linejoin:miter;stroke-miterlimit:4;stroke-dasharray:none;stroke-opacity:1"
         id="path64" />
      <path
         d="m 32996.5,23251.7 c 78.3,0 141.8,63.5 141.8,141.8 0,78.2 -63.5,141.7 -141.8,141.7 -78.2,0 -141.7,-63.5 -141.7,-141.7 0,-78.3 63.5,-141.8 141.7,-141.8"
         style="fill:none;stroke:#00adef;stroke-width:2.5;stroke-linecap:butt;stroke-linejoin:miter;stroke-miterlimit:10;stroke-dasharray:none;stroke-opacity:1"
         id="path66" />
      <path
         d="m 32996.5,23251.7 c 78.3,0 141.8,63.5 141.8,141.8 0,78.2 -63.5,141.7 -141.8,141.7 -78.2,0 -141.7,-63.5 -141.7,-141.7 0,-78.3 63.5,-141.8 141.7,-141.8 z"
         style="fill:none;stroke:#00adef;stroke-width:2.5;stroke-linecap:butt;stroke-linejoin:miter;stroke-miterlimit:4;stroke-dasharray:none;stroke-opacity:1"
         id="path68" />
    </g>
  </g>
</svg>
