<?xml version="1.0" encoding="UTF-8" standalone="no"?>
<!-- Created with Inkscape (http://www.inkscape.org/) -->

<svg
   version="1.1"
   id="svg2"
   width="2029.3199"
   height="7634.9731"
   viewBox="0 0 2029.3199 7634.9731"
   sodipodi:docname="FB_gerade_S.eps"
   xmlns:inkscape="http://www.inkscape.org/namespaces/inkscape"
   xmlns:sodipodi="http://sodipodi.sourceforge.net/DTD/sodipodi-0.dtd"
   xmlns="http://www.w3.org/2000/svg"
   xmlns:svg="http://www.w3.org/2000/svg">
  <defs
     id="defs6" />
  <sodipodi:namedview
     id="namedview4"
     pagecolor="#ffffff"
     bordercolor="#000000"
     borderopacity="0.25"
     inkscape:showpageshadow="2"
     inkscape:pageopacity="0.0"
     inkscape:pagecheckerboard="0"
     inkscape:deskcolor="#d1d1d1" />
  <g
     id="g8"
     inkscape:groupmode="layer"
     inkscape:label="ink_ext_XXXXXX"
     transform="matrix(1.3333333,0,0,-1.3333333,0,7634.9733)">
    <g
       id="g10"
       transform="scale(0.1)">
      <path
         d="M 458.906,1.20313 329.008,7984.2 169.063,18452.7 24.4258,28648.8 l -0.0274,9.1 c -3.164,1105.5 -18.87106,6626.6 -16.6484,6749.6 0.71484,39.1 0,77.3 -1.17969,140.5 -2.4414,131.1 -6.5273412,350.6 -4.98047,878.4 l 0.10547,33.4 c 2.52735,877.7 10.21879,3548.8 257.39069,6039.1 251.785,2536.8 667.809,4201 1079.874,5621.6 412.37,1421.6 1270.14,3034 1314.05,3116 647.07,1226.3 1226.29,2097.6 1878.07,2825.2 757.89,846 1639.39,1527.9 2774.13,2146.2 763.8,415 1814.48,702.2 3212.39,878.3 1159.3,144.5 2313.5,174.9 3077.7,174.9 643,0 1064.7,-20.7 1110.7,-23 l 512.7,-27 V 1.20313 Z"
         style="fill:none;stroke:#469137;stroke-width:2.5;stroke-linecap:butt;stroke-linejoin:miter;stroke-miterlimit:4;stroke-dasharray:none;stroke-opacity:1"
         id="path12" />
    </g>
  </g>
</svg>
