<?xml version="1.0" encoding="UTF-8" standalone="no"?>
<!-- Created with Inkscape (http://www.inkscape.org/) -->

<svg
   version="1.1"
   id="svg2"
   width="1059.6"
   height="1475.3467"
   viewBox="0 0 1059.6 1475.3467"
   sodipodi:docname="X-Banner Small.eps"
   xmlns:inkscape="http://www.inkscape.org/namespaces/inkscape"
   xmlns:sodipodi="http://sodipodi.sourceforge.net/DTD/sodipodi-0.dtd"
   xmlns="http://www.w3.org/2000/svg"
   xmlns:svg="http://www.w3.org/2000/svg">
  <defs
     id="defs6" />
  <sodipodi:namedview
     id="namedview4"
     pagecolor="#ffffff"
     bordercolor="#000000"
     borderopacity="0.25"
     inkscape:showpageshadow="2"
     inkscape:pageopacity="0.0"
     inkscape:pagecheckerboard="0"
     inkscape:deskcolor="#d1d1d1" />
  <g
     id="g8"
     inkscape:groupmode="layer"
     inkscape:label="ink_ext_XXXXXX"
     transform="matrix(1.3333333,0,0,-1.3333333,0,1475.3467)">
    <g
       id="g10"
       transform="scale(0.1)">
      <path
         d="M 7942.01,5 H 5 v 11055.1 h 7937.01 z"
         style="fill:none;stroke:#7b6f6c;stroke-width:10;stroke-linecap:butt;stroke-linejoin:miter;stroke-miterlimit:10;stroke-dasharray:none;stroke-opacity:1"
         id="path12" />
      <path
         d="m 416.031,10719.9 c 0,-39.1 -31.726,-70.8 -70.863,-70.8 -39.141,0 -70.867,31.7 -70.867,70.8 0,39.2 31.726,70.9 70.867,70.9 39.137,0 70.863,-31.7 70.863,-70.9 z"
         style="fill:none;stroke:#7b6f6c;stroke-width:10;stroke-linecap:butt;stroke-linejoin:miter;stroke-miterlimit:10;stroke-dasharray:none;stroke-opacity:1"
         id="path14" />
      <path
         d="m 7672.71,10719.9 c 0,-39.1 -31.72,-70.8 -70.86,-70.8 -39.14,0 -70.87,31.7 -70.87,70.8 0,39.2 31.73,70.9 70.87,70.9 39.14,0 70.86,-31.7 70.86,-70.9 z"
         style="fill:none;stroke:#7b6f6c;stroke-width:10;stroke-linecap:butt;stroke-linejoin:miter;stroke-miterlimit:10;stroke-dasharray:none;stroke-opacity:1"
         id="path16" />
      <path
         d="m 416.027,345.102 c 0,-39.102 -31.726,-70.801 -70.867,-70.801 -39.137,0 -70.863,31.699 -70.863,70.801 0,39.199 31.726,70.898 70.863,70.898 39.141,0 70.867,-31.699 70.867,-70.898 z"
         style="fill:none;stroke:#7b6f6c;stroke-width:10;stroke-linecap:butt;stroke-linejoin:miter;stroke-miterlimit:10;stroke-dasharray:none;stroke-opacity:1"
         id="path18" />
      <path
         d="m 7672.71,345.102 c 0,-39.102 -31.73,-70.801 -70.87,-70.801 -39.14,0 -70.87,31.699 -70.87,70.801 0,39.199 31.73,70.898 70.87,70.898 39.14,0 70.87,-31.699 70.87,-70.898 z"
         style="fill:none;stroke:#7b6f6c;stroke-width:10;stroke-linecap:butt;stroke-linejoin:miter;stroke-miterlimit:10;stroke-dasharray:none;stroke-opacity:1"
         id="path20" />
    </g>
  </g>
</svg>
